<svg width="16" height="16" viewBox="0 0 16 16" fill="none" xmlns="http://www.w3.org/2000/svg">
<path d="M7.99992 12.1333C9.47268 12.1333 10.6666 10.9394 10.6666 9.46665C10.6666 7.9939 9.47268 6.79999 7.99992 6.79999C6.52716 6.79999 5.33325 7.9939 5.33325 9.46665C5.33325 10.9394 6.52716 12.1333 7.99992 12.1333Z" stroke="black" stroke-opacity="0.6" stroke-width="1.5" stroke-miterlimit="10" stroke-linecap="round" stroke-linejoin="round"/>
<path d="M6.95996 9.53334L7.39329 9.96667C7.51996 10.0933 7.72663 10.0933 7.85329 9.97334L9.03996 8.88" stroke="black" stroke-opacity="0.6" stroke-width="1.5" stroke-linecap="round" stroke-linejoin="round"/>
<path d="M5.33338 14.6667H10.6667C13.3467 14.6667 13.8267 13.5933 13.9667 12.2867L14.4667 6.95333C14.6467 5.32667 14.18 4 11.3334 4H4.66671C1.82005 4 1.35338 5.32667 1.53338 6.95333L2.03338 12.2867C2.17338 13.5933 2.65338 14.6667 5.33338 14.6667Z" stroke="black" stroke-opacity="0.6" stroke-width="1.5" stroke-miterlimit="10" stroke-linecap="round" stroke-linejoin="round"/>
<path d="M5.33325 3.99998V3.46665C5.33325 2.28665 5.33325 1.33331 7.46659 1.33331H8.53325C10.6666 1.33331 10.6666 2.28665 10.6666 3.46665V3.99998" stroke="black" stroke-opacity="0.6" stroke-width="1.5" stroke-miterlimit="10" stroke-linecap="round" stroke-linejoin="round"/>
<path d="M14.4333 7.33331C13.28 8.17331 12 8.75998 10.6733 9.09331" stroke="black" stroke-opacity="0.6" stroke-width="1.5" stroke-miterlimit="10" stroke-linecap="round" stroke-linejoin="round"/>
<path d="M1.74658 7.51331C2.85992 8.27331 4.07325 8.81331 5.33325 9.11997" stroke="black" stroke-opacity="0.6" stroke-width="1.5" stroke-miterlimit="10" stroke-linecap="round" stroke-linejoin="round"/>
</svg>
