<svg width="16" height="16" viewBox="0 0 16 16" fill="none" xmlns="http://www.w3.org/2000/svg">
<path d="M14.44 6.96003L13.7867 9.74669C13.2267 12.1534 12.12 13.1267 10.04 12.9267C9.70671 12.9 9.3467 12.84 8.96004 12.7467L7.84004 12.48C5.06004 11.82 4.20004 10.4467 4.85337 7.66003L5.50671 4.86669C5.64004 4.30003 5.80004 3.80669 6.00004 3.40003C6.78004 1.78669 8.1067 1.35336 10.3334 1.88003L11.4467 2.14003C14.24 2.79336 15.0934 4.17336 14.44 6.96003Z" stroke="black" stroke-opacity="0.6" stroke-width="1.5" stroke-linecap="round" stroke-linejoin="round"/>
<path d="M10.04 12.9267C9.62665 13.2067 9.10665 13.44 8.47332 13.6467L7.41998 13.9934C4.77332 14.8467 3.37998 14.1334 2.51998 11.4867L1.66665 8.85336C0.813317 6.20669 1.51998 4.80669 4.16665 3.95336L5.21998 3.60669C5.49332 3.52002 5.75332 3.44669 5.99998 3.40002C5.79998 3.80669 5.63998 4.30002 5.50665 4.86669L4.85332 7.66002C4.19998 10.4467 5.05998 11.82 7.83998 12.48L8.95998 12.7467C9.34665 12.84 9.70665 12.9 10.04 12.9267Z" stroke="black" stroke-opacity="0.6" stroke-width="1.5" stroke-linecap="round" stroke-linejoin="round"/>
<path d="M8.42664 5.68665L11.66 6.50665" stroke="black" stroke-opacity="0.6" stroke-width="1.5" stroke-linecap="round" stroke-linejoin="round"/>
<path d="M7.77332 8.26666L9.70665 8.76" stroke="black" stroke-opacity="0.6" stroke-width="1.5" stroke-linecap="round" stroke-linejoin="round"/>
</svg>
