<svg width="16" height="16" viewBox="0 0 16 16" fill="none" xmlns="http://www.w3.org/2000/svg">
<path d="M5.58667 7.99999L7.19334 9.61332L10.4133 6.38666" stroke="black" stroke-opacity="0.6" stroke-width="1.5" stroke-linecap="round" stroke-linejoin="round"/>
<path d="M7.16667 1.63332C7.62667 1.23998 8.38 1.23998 8.84667 1.63332L9.9 2.53998C10.1 2.71332 10.4733 2.85332 10.74 2.85332H11.8733C12.58 2.85332 13.16 3.43332 13.16 4.13998V5.27332C13.16 5.53332 13.3 5.91332 13.4733 6.11332L14.38 7.16665C14.7733 7.62665 14.7733 8.37999 14.38 8.84665L13.4733 9.89999C13.3 10.1 13.16 10.4733 13.16 10.74V11.8733C13.16 12.58 12.58 13.16 11.8733 13.16H10.74C10.48 13.16 10.1 13.3 9.9 13.4733L8.84667 14.38C8.38667 14.7733 7.63334 14.7733 7.16667 14.38L6.11334 13.4733C5.91334 13.3 5.54 13.16 5.27334 13.16H4.12C3.41334 13.16 2.83334 12.58 2.83334 11.8733V10.7333C2.83334 10.4733 2.69334 10.1 2.52667 9.89999L1.62667 8.83999C1.24 8.37999 1.24 7.63332 1.62667 7.17332L2.52667 6.11332C2.69334 5.91332 2.83334 5.53998 2.83334 5.27998V4.13332C2.83334 3.42665 3.41334 2.84665 4.12 2.84665H5.27334C5.53334 2.84665 5.91334 2.70665 6.11334 2.53332L7.16667 1.63332Z" stroke="black" stroke-opacity="0.6" stroke-width="1.5" stroke-linecap="round" stroke-linejoin="round"/>
</svg>
