<svg width="46" height="26" viewBox="0 0 46 26" fill="none" xmlns="http://www.w3.org/2000/svg">
<path d="M6 20.2C5.02667 20.2 4.18 20.02 3.46 19.66C2.74 19.2867 2.18 18.7733 1.78 18.12C1.39333 17.4533 1.2 16.68 1.2 15.8V9.6C1.2 8.72 1.39333 7.95333 1.78 7.3C2.18 6.63333 2.74 6.12 3.46 5.76C4.18 5.38667 5.02667 5.2 6 5.2C6.98667 5.2 7.83333 5.38667 8.54 5.76C9.26 6.12 9.81333 6.63333 10.2 7.3C10.6 7.95333 10.8 8.72 10.8 9.6V15.8C10.8 16.68 10.6 17.4533 10.2 18.12C9.81333 18.7733 9.26 19.2867 8.54 19.66C7.83333 20.02 6.98667 20.2 6 20.2ZM6 17.6C6.6 17.6 7.04667 17.4467 7.34 17.14C7.64667 16.82 7.8 16.3733 7.8 15.8V9.6C7.8 9.01333 7.65333 8.56667 7.36 8.26C7.06667 7.95333 6.61333 7.8 6 7.8C5.38667 7.8 4.93333 7.95333 4.64 8.26C4.34667 8.56667 4.2 9.01333 4.2 9.6V15.8C4.2 16.3733 4.34667 16.82 4.64 17.14C4.94667 17.4467 5.4 17.6 6 17.6ZM13.2922 20V5.4H16.2922V11.06H17.7122L20.1122 5.4H23.3722L20.3722 12.38L23.4922 20H20.1922L17.7122 13.82H16.2922V20H13.2922ZM25.2844 20V5.4H29.9844C31.0244 5.4 31.9244 5.58 32.6844 5.94C33.4444 6.3 34.031 6.81333 34.4444 7.48C34.871 8.14667 35.0844 8.93333 35.0844 9.84C35.0844 10.7867 34.851 11.6333 34.3844 12.38C33.931 13.1267 33.311 13.6667 32.5244 14L35.2844 20H32.0244L29.6644 14.48H28.2644V20H25.2844ZM28.2644 11.88H29.9844C30.651 11.88 31.1644 11.7133 31.5244 11.38C31.8977 11.0467 32.0844 10.58 32.0844 9.98C32.0844 9.35333 31.8977 8.86667 31.5244 8.52C31.1644 8.17333 30.651 8 29.9844 8H28.2644V11.88Z" fill="#047358"/>
<path d="M40 20.2C39.3867 20.2 38.8933 20.02 38.52 19.66C38.16 19.2867 37.98 18.7933 37.98 18.18C37.98 17.5533 38.16 17.06 38.52 16.7C38.8933 16.34 39.3867 16.16 40 16.16C40.6267 16.16 41.12 16.34 41.48 16.7C41.84 17.06 42.02 17.5533 42.02 18.18C42.02 18.7933 41.84 19.2867 41.48 19.66C41.12 20.02 40.6267 20.2 40 20.2Z" fill="black"/>
</svg>
